<?xml version="1.0" encoding="UTF-8" standalone="no"?>
<!DOCTYPE svg PUBLIC "-//W3C//DTD SVG 1.1//EN" "http://www.w3.org/Graphics/SVG/1.1/DTD/svg11.dtd">
<svg width="1000" height="425" viewBox="0 0 1000 425" fill="none" xmlns="http://www.w3.org/2000/svg">
	<path d="M180.27 186.46H160.01V137.13H130.06V186.46H109.79V116.86H180.27V186.46Z" fill="#FFFF00"/>
	<path d="M408.45 116.9H388.18V186.46H408.45V116.9Z" fill="#FFFF00"/>
	<path d="M455.75 116.9H435.48V186.46H455.75V116.9Z" fill="#FFFF00"/>
	<path d="M432.1 116.9H411.83V186.46H432.1V116.9Z" fill="#FFFF00"/>
	<path d="M741.13 155.07H720.86C720.86 145.2 712.83 137.17 702.96 137.17V116.9C724.01 116.9 741.13 134.02 741.13 155.07Z" fill="#FFFF00"/>
	<path d="M741.7 184.58H674.14V116.9H694.41V164.32H741.7V184.58Z" fill="#FFFF00"/>
	<path d="M843.11 141.45H822.84V161.91H843.11V141.45Z" fill="#FFFF00"/>
	<path d="M890.41 141.45H870.14V161.91H890.41V141.45Z" fill="#FFFF00"/>
	<path d="M866.76 141.45H846.49V161.91H866.76V141.45Z" fill="#FFFF00"/>
	<path d="M866.76 116.9H846.49V137.36H866.76V116.9Z" fill="#FFFF00"/>
	<path d="M843.11 166H822.84V186.46H843.11V166Z" fill="#FFFF00"/>
	<path d="M890.41 166H870.14V186.46H890.41V166Z" fill="#FFFF00"/>
	<path d="M843.11 116.9H822.84V137.36H843.11V116.9Z" fill="#FFFF00"/>
	<path d="M890.41 116.9H870.14V137.36H890.41V116.9Z" fill="#FFFF00"/>
	<path d="M598.53 185.54H578.26V136.21H548.32V185.54H528.05V115.94H598.53V185.54Z" fill="#FFFF00"/>
	<path d="M573.43 150.77C573.43 156.37 568.89 160.9 563.3 160.9C557.7 160.9 553.17 156.36 553.17 150.77C553.17 145.17 557.71 140.64 563.3 140.64C568.89 140.63 573.43 145.17 573.43 150.77Z" fill="#FFFF00"/>
	<path d="M281.35 116.95L261.29 151.69H301.4L281.35 116.95Z" fill="#FFFF00"/>
	<path d="M261.29 151.68L241.23 186.41H281.35L261.29 151.68Z" fill="#FFFF00"/>
	<path d="M301.4 151.68L281.35 186.41H321.46L301.4 151.68Z" fill="#FFFF00"/>
	<path d="M114.99 309.3V253.74H134L150.98 285.66V253.74H166.4V309.3H148.25L130.57 275.65V309.3H114.99Z" fill="#FFFF00"/>
	<path d="M291.85 309.3L288.88 300.07H269.71L266.66 309.3H249.99L270.41 253.74H288.49L308.99 309.3H291.85ZM273.7 287.78H284.81L279.25 270.72L273.7 287.78Z" fill="#FFFF00"/>
	<path d="M390.46 309.3V253.74H413.47L423.02 287.93L432.64 253.74H454.39V309.3H439.05V273.54L428.8 309.3H416.44L406.11 273.23V309.3H390.46Z" fill="#FFFF00"/>
	<path d="M576.13 309.3L573.16 300.07H553.99L550.94 309.3H534.27L554.69 253.74H572.77L593.27 309.3H576.13ZM557.98 287.78H569.09L563.53 270.72L557.98 287.78Z" fill="#FFFF00"/>
	<path d="M684.45 309.3V253.74H707.3C724.83 253.74 736.88 263.44 736.88 280.89V282.14C736.88 299.67 724.75 309.29 707.3 309.29H684.45V309.3ZM700.57 296.15H706.36C714.58 296.15 719.74 292.63 719.74 282.14V280.89C719.74 270.33 714.5 266.88 706.52 266.88H700.57V296.15Z" fill="#FFFF00"/>
	<path d="M866.85 309.3L863.88 300.07H844.71L841.66 309.3H824.99L845.41 253.74H863.49L883.99 309.3H866.85ZM848.7 287.78H859.81L854.25 270.72L848.7 287.78Z" fill="#FFFF00"/>
</svg>