<?xml version="1.0" encoding="UTF-8" standalone="no"?>
<!DOCTYPE svg PUBLIC "-//W3C//DTD SVG 1.1//EN" "http://www.w3.org/Graphics/SVG/1.1/DTD/svg11.dtd">
<svg width="456" height="456" viewBox="0 0 456 456" fill="none" xmlns="http://www.w3.org/2000/svg">
	<g clip-path="url(#clip0_1_2)">
		<path d="M297.818 228.015H230.508V295.325H297.818V228.015Z" fill="#FFFF00"/>
		<path d="M163.163 160.675C200.315 160.675 230.473 190.837 230.473 227.985H163.163V160.675Z" fill="#FFFF00"/>
		<path d="M163.163 228.015L124.3 295.33H202.026L163.163 228.015Z" fill="#FFFF00"/>
		<path d="M298.064 227.963C316.641 227.963 331.7 212.904 331.7 194.328C331.7 175.751 316.641 160.692 298.064 160.692C279.488 160.692 264.429 175.751 264.429 194.328C264.429 212.904 279.488 227.963 298.064 227.963Z" fill="#FFFF00"/>
		<path d="M228.002 408C179.92 408 134.72 389.277 100.721 355.279C66.723 321.284 48 276.08 48 228.002C48 179.925 66.723 134.72 100.721 100.721C134.72 66.723 179.92 48 228.002 48C276.084 48 321.284 66.723 355.283 100.721C389.281 134.72 408.004 179.92 408.004 228.002C408.004 276.084 389.281 321.284 355.283 355.283C321.284 389.281 276.084 408.004 228.002 408.004V408ZM228.002 70.3043C185.882 70.3043 146.28 86.7074 116.494 116.494C86.7074 146.276 70.3043 185.878 70.3043 228.002C70.3043 270.127 86.7074 309.724 116.494 339.51C146.28 369.297 185.882 385.7 228.002 385.7C270.122 385.7 309.724 369.297 339.51 339.51C369.297 309.724 385.7 270.122 385.7 228.002C385.7 185.882 369.297 146.28 339.51 116.494C309.724 86.7074 270.122 70.3043 228.002 70.3043Z" fill="#FFFF00"/>
	</g>
	<defs>
		<clipPath id="clip0_1_2">
			<rect width="360" height="360" fill="white" transform="translate(48 48)"/>
		</clipPath>
	</defs>
</svg>