<svg width="24" height="24" viewBox="0 0 24 24" fill="none" xmlns="http://www.w3.org/2000/svg">
<path d="M21.0163 9.59737C20.4614 9.39243 19.8846 9.53365 19.3758 9.33677C18.1857 8.42719 20.5588 7.36311 20.1394 6.15828C19.6171 4.21679 17.1812 2.79927 15.7105 4.69397C15.2917 5.13433 14.4034 4.74322 14.4613 4.13386C14.5107 3.47458 14.2962 2.78764 13.8334 2.30506C12.1491 0.594466 9.12538 1.6857 9.0078 4.10026C8.33584 5.09215 7.09627 3.14435 6.20032 3.33804C4.62053 3.43889 3.4103 5.2045 3.67228 6.72262C3.75174 7.30428 4.30554 7.64861 4.56111 8.13943C4.96411 8.87562 4.76251 9.48005 3.83246 9.37263C2.21835 9.2533 1.39019 10.9842 1.61389 12.3838C1.58388 13.7246 2.95442 14.7107 4.22917 14.5245C4.70263 14.5248 4.99143 15.2263 4.65631 15.5587C2.17538 17.285 5.09663 21.4245 7.53981 19.9109C8.1875 19.5633 8.71046 18.737 9.30275 19.5048C9.47046 20.2346 9.13144 20.7767 9.76378 21.5241C10.9525 22.9558 13.7288 22.8827 14.5702 21.1158C15.049 20.3104 13.8358 19.656 13.4606 20.5168C13.4035 20.6799 13.3192 20.8232 13.1717 20.9448C12.3665 21.6181 10.3193 21.3788 10.5171 20.0242C10.7086 18.6565 9.0873 17.486 7.89083 18.3149C7.35135 18.6054 6.89931 19.2214 6.27937 19.1566C5.6782 18.9975 5.07888 18.3639 4.79481 17.8103C4.38755 16.347 6.3877 16.3281 5.69172 14.5325C5.20165 13.4727 4.53701 13.555 3.55709 13.4974C2.59812 13.3071 2.47435 12.3265 2.58318 11.5096C2.82801 10.2242 3.42829 10.3489 4.48015 10.2622C6.23296 9.89136 5.77917 7.79439 4.72677 6.88848C3.98008 5.94245 5.43957 3.75719 6.59813 4.30345C7.39047 4.9093 8.72849 5.76156 9.56758 4.79536C9.96157 4.33697 9.80361 3.68744 10.1292 3.21528C10.4725 2.60888 11.1647 2.27581 11.8564 2.29008C12.9794 2.29376 13.8117 3.11766 13.6763 4.25198C13.7168 5.31819 15.0257 6.00216 15.94 5.4751C16.2502 5.31949 16.4048 4.9911 16.6942 4.81063C17.1225 4.51422 17.7175 4.44137 18.1631 4.73214C21.3942 7.24733 16.9391 7.36403 18.6554 9.76964C19.1748 10.3399 20.0522 10.1748 20.6972 10.3406C21.7459 10.9305 21.9396 13.1249 20.7602 13.672C20.197 13.8848 20.5519 14.7564 21.1034 14.5183C22.9748 13.6563 22.7718 10.4846 21.0163 9.59737Z" fill="black"/>
<path d="M19.1552 16.021C18.5852 15.2953 16.5858 13.5888 16.6188 12.8518C16.6828 11.7482 17.0693 10.4486 16.268 9.49791C15.6985 8.51129 14.7328 7.79832 13.6762 7.43136C12.9895 7.08142 9.13227 6.65705 10.0689 8.2142C10.806 9.02755 11.6597 9.78717 12.4393 10.5618C12.4397 11.7045 11.9715 12.6644 10.6451 12.3793C9.62862 11.8733 9.10486 10.7803 8.15402 10.1335C7.4631 9.95467 7.5121 11.704 7.53198 12.1455C7.63131 13.3421 8.14063 14.497 8.9898 15.35C10.9816 17.5088 13.0475 15.3874 15.0942 17.4186C16.5339 18.457 16.9935 20.3271 18.2387 21.5601C19.8312 23.0103 22.5313 20.5652 21.3382 18.8109C20.7463 17.7974 19.9514 16.8707 19.1552 16.021ZM18.7406 21.0896C17.5226 19.861 17.0269 17.9115 15.5483 16.8501C12.9697 14.17 9.00205 17.7703 8.42466 11.692C10.2741 14.4688 13.6512 13.9285 13.5838 10.3468C13.5695 9.87747 13.0562 9.59863 12.7885 9.26623C12.4976 8.97274 12.187 8.66155 11.8812 8.34718C13.2441 8.40522 14.6066 9.05471 15.294 10.2503C16.1208 11.3671 14.8713 13.1336 16.1052 14.1722C17.6576 15.894 19.5419 17.2043 20.742 19.1925C21.495 20.2706 19.7649 21.9116 18.7406 21.0896Z" fill="black"/>
</svg>