<svg width="24" height="24" viewBox="0 0 24 24" fill="none" xmlns="http://www.w3.org/2000/svg">
	<path d="M22.5019 11.8835C22.6426 7.87578 19.9929 4.05045 16.348 2.50575C15.32 2.07171 14.2059 1.8294 13.0898 1.82352C13.0017 1.64658 12.8295 1.51134 12.5693 1.49551C8.21511 1.18014 5.02058 4.32347 2.83497 7.72878C2.71672 7.63926 2.62034 7.52072 2.56055 7.37097C2.27683 6.68889 2.30319 5.91537 2.34871 5.18931C2.33173 4.83149 2.65525 4.21056 2.14048 4.09148C1.91145 4.05078 1.72609 4.23774 1.71676 4.45982C1.61273 5.08285 1.5346 5.7113 1.52914 6.37483C1.43053 9.36961 3.9844 9.68046 6.27009 8.7993C6.59081 8.67668 6.55722 8.16858 6.2161 8.09494C5.39402 7.89148 4.54517 7.96171 3.72354 7.94457C3.86194 7.68855 4.01108 7.43848 4.17054 7.19502C5.95792 4.46258 9.10558 2.18807 12.4987 2.76936C12.7999 2.78437 13.0004 2.62927 13.0955 2.42278C17.7251 2.65464 21.6944 7.15818 21.4138 11.7734C21.406 11.8162 21.4032 11.8597 21.4055 11.9032C21.4195 13.7376 21.0045 15.6251 20.0209 17.1712C19.8275 17.4731 19.9232 17.878 20.2316 18.0612C21.326 18.7194 22.0364 15.6503 22.2397 14.9293C22.4619 13.9252 22.5425 12.9 22.5019 11.8835ZM17.2491 20.0205C16.9698 20.2234 16.6744 20.4047 16.3689 20.5671C15.9729 20.7777 15.4984 20.9824 15.075 21.1337C14.1308 21.4798 13.1341 21.7059 12.1307 21.5877C11.5295 21.6987 11.7156 22.6435 12.3159 22.5141C13.4391 22.341 14.6119 22.2123 15.7031 21.8822C16.0319 21.789 16.4758 21.6413 16.7961 21.5217C17.402 21.2147 19.0488 20.8889 18.4196 19.9077C18.0841 19.4835 17.5687 19.6973 17.2491 20.0205ZM10.646 21.6422C10.4618 21.5806 10.2787 21.4948 10.0845 21.4753C9.52494 21.4597 9.51351 22.3384 10.073 22.3377C10.2035 22.3417 10.3881 22.3397 10.5203 22.3392C10.9038 22.3494 11.0156 21.7699 10.646 21.6422ZM6.93917 20.0267C6.44916 19.7833 5.82983 19.0507 5.32071 19.6451C4.81631 20.3435 5.80418 20.7863 6.27753 21.1168C6.99205 21.5461 7.65015 20.4626 6.93917 20.0267ZM2.64357 15.9304C2.0432 16.2557 2.69554 16.965 2.85229 17.3939C3.1228 17.9158 3.9293 17.4588 3.62132 16.9585C3.32543 16.6159 3.2513 15.7387 2.64357 15.9304ZM2.43469 12.1418C2.47038 11.6775 1.7395 11.6336 1.7177 12.0981L1.71631 12.1204L1.68867 12.5625C1.65278 13.031 2.39011 13.0724 2.40726 12.6032C2.41446 12.4493 2.42556 12.2949 2.43469 12.1418Z" fill="black"/>
	<path d="M17.1467 15.5146C17.106 14.1537 15.5619 12.4643 14.0358 11.7784C14.6662 11.2437 15.0889 10.431 15.0729 9.34947C14.7792 5.54264 9.0044 5.81406 8.91061 9.58643C8.91492 10.7424 9.41172 11.5527 10.1214 12.0287C8.81702 12.5867 7.58832 13.4912 7.23602 14.4507C6.53404 16.6414 9.08273 17.373 11.0313 17.305C11.941 17.3051 12.9062 17.215 13.8213 17.1297C15.1582 16.9336 17.1855 17.3391 17.1467 15.5146ZM11.2356 8.03981C11.898 7.72315 12.6464 7.82525 13.2077 8.2998C14.1957 9.02278 13.844 10.2958 13.0842 10.8938C12.0508 11.7132 10.1904 11.2407 10.183 9.653C10.1846 8.95358 10.5766 8.34647 11.2356 8.03981ZM8.5847 15.4906C7.88717 14.833 9.22241 13.9362 10.0919 13.4447C10.9882 12.9804 11.8933 12.7209 12.6638 12.7412C13.9484 12.7546 15.8412 14.422 15.8637 15.6696C13.8222 15.7864 9.91036 16.5306 8.5847 15.4906Z" fill="black"/>
</svg>