<svg width="40" height="40" viewBox="0 0 40 40" fill="none" xmlns="http://www.w3.org/2000/svg">
	<g clip-path="url(#clip0_57_6)">
		<path d="M20 0.921143C9.46313 0.921143 0.921021 9.46325 0.921021 20.0001C0.921021 24.6264 2.56839 28.8672 5.3072 32.1705C6.58286 26.9751 10.5447 22.8461 15.6322 21.3119C13.5072 19.8968 12.1052 17.4817 12.1052 14.7369C12.1052 10.3771 15.6401 6.8422 20 6.8422C24.3598 6.8422 27.8947 10.3771 27.8947 14.7369C27.8947 17.4817 26.4927 19.8968 24.3671 21.3119C29.4546 22.8461 33.4164 26.9751 34.6921 32.1705C37.4315 28.8672 39.0789 24.6264 39.0789 20.0001C39.0789 9.46325 30.5368 0.921143 20 0.921143Z" fill="#EFECE8"/>
		<path d="M24.3671 21.3118C26.4927 19.8966 27.8947 17.4815 27.8947 14.7368C27.8947 10.3769 24.3598 6.84204 20 6.84204C15.6401 6.84204 12.1052 10.3769 12.1052 14.7368C12.1052 17.4815 13.5072 19.8966 15.6329 21.3118C10.5454 22.846 6.58352 26.9749 5.30786 32.1703C5.30786 32.1703 5.30786 32.171 5.30852 32.171C5.51703 32.4215 5.73179 32.6668 5.9526 32.9065C6.00589 32.9651 6.06181 33.021 6.11641 33.0782C6.28565 33.2587 6.45827 33.4359 6.63418 33.6098C6.7072 33.6815 6.78155 33.7506 6.85589 33.821C7.01876 33.9765 7.18436 34.1292 7.3526 34.2789C7.43615 34.3526 7.52102 34.4256 7.60523 34.498C7.77036 34.6394 7.93747 34.7782 8.10786 34.9138C8.19734 34.9855 8.28747 35.0559 8.3776 35.1263C8.54998 35.2589 8.72479 35.3883 8.90194 35.5144C8.99339 35.5795 9.08352 35.646 9.17628 35.7098C9.36313 35.8388 9.55326 35.9624 9.7447 36.0848C9.83089 36.1394 9.9151 36.196 10.0019 36.2499C10.2236 36.3858 10.448 36.5171 10.675 36.644C10.7348 36.6776 10.7934 36.7138 10.8539 36.7467C11.1478 36.9078 11.446 37.0611 11.748 37.2065C11.7552 37.2098 11.7631 37.2131 11.7704 37.2164C12.0592 37.3545 12.3526 37.4855 12.6493 37.6092C12.7414 37.648 12.8355 37.6822 12.9283 37.719C13.1427 37.8045 13.3572 37.8888 13.5756 37.9664C13.6914 38.0078 13.8085 38.0453 13.925 38.0848C14.1237 38.1519 14.3237 38.217 14.525 38.2769C14.6526 38.3151 14.7809 38.3506 14.9098 38.3861C15.1046 38.4401 15.3006 38.4914 15.4987 38.5394C15.8297 38.6197 16.1629 38.6905 16.498 38.7519C16.6335 38.7769 16.7684 38.8026 16.9052 38.8243C17.1118 38.8578 17.3197 38.8861 17.5283 38.9131C17.6598 38.9302 17.7908 38.9493 17.923 38.9631C18.1533 38.9881 18.3855 39.0059 18.6177 39.0223C18.7302 39.0302 18.8414 39.042 18.9539 39.048C19.3006 39.0677 19.6487 39.0789 20 39.0789C20.3513 39.0789 20.6993 39.0677 21.046 39.0493C21.1585 39.0434 21.2704 39.0315 21.3822 39.0236C21.6151 39.0072 21.8473 38.9894 22.0769 38.9644C22.2092 38.9499 22.3401 38.9315 22.4717 38.9144C22.6802 38.8874 22.8881 38.8592 23.0947 38.8256C23.2309 38.8032 23.3664 38.7782 23.5019 38.7532C23.837 38.692 24.1703 38.6212 24.5013 38.5407C24.6987 38.4927 24.8947 38.4414 25.0901 38.3874C25.2184 38.3519 25.3473 38.3164 25.475 38.2782C25.6769 38.2177 25.8763 38.1526 26.075 38.0861C26.1914 38.0467 26.3092 38.0092 26.4243 37.9677C26.6415 37.889 26.8573 37.8065 27.0717 37.7203C27.1644 37.6835 27.2585 37.6486 27.3506 37.6105C27.6456 37.4875 27.9374 37.357 28.2256 37.219C28.2342 37.2151 28.2434 37.2111 28.2519 37.2072C28.5546 37.0618 28.8526 36.9078 29.146 36.7473C29.2066 36.7144 29.2651 36.6782 29.325 36.6447C29.5519 36.5178 29.7763 36.3864 29.998 36.2506C30.0848 36.1973 30.1697 36.1407 30.2552 36.0855C30.4467 35.9631 30.6368 35.8388 30.8237 35.7105C30.9158 35.6467 31.0066 35.5809 31.098 35.5151C31.2748 35.3885 31.4496 35.2591 31.6223 35.1269C31.713 35.057 31.8029 34.9862 31.8921 34.9144C32.062 34.7787 32.2296 34.6401 32.3947 34.4986C32.4796 34.4263 32.5644 34.3532 32.6473 34.2795C32.8156 34.1298 32.9812 33.9772 33.1441 33.8217C33.2177 33.7513 33.2927 33.6815 33.3658 33.6105C33.5418 33.4367 33.7145 33.2595 33.8835 33.0789C33.9375 33.021 33.9934 32.9651 34.0473 32.9072C34.2677 32.667 34.4835 32.4223 34.6914 32.1717C34.6914 32.1717 34.6914 32.171 34.6921 32.171C33.4171 26.9749 29.4552 22.8453 24.3671 21.3118Z" fill="#C6C3BD"/>
		<path d="M20 0.263184C9.11713 0.263184 0.263184 9.11713 0.263184 20C0.263184 24.7665 1.96187 29.1434 4.78555 32.5579C4.79279 32.5678 4.79345 32.5803 4.80134 32.5895C6.84016 35.0481 9.40068 36.9329 12.254 38.1507C12.2869 38.1645 12.3191 38.1796 12.352 38.1934C12.5829 38.2908 12.8165 38.3809 13.0507 38.4691C13.1428 38.504 13.2349 38.5395 13.3283 38.5731C13.5303 38.6454 13.7336 38.7138 13.9382 38.7796C14.0691 38.8217 14.2 38.8632 14.3323 38.9027C14.5132 38.9566 14.6948 39.0086 14.8777 39.0579C15.0382 39.1013 15.2 39.1415 15.3619 39.1803C15.5257 39.2198 15.6902 39.2592 15.8553 39.2941C16.0395 39.3336 16.2257 39.3684 16.4125 39.4027C16.5625 39.4303 16.7119 39.4592 16.8632 39.4836C17.0704 39.5171 17.279 39.5434 17.4882 39.5704C17.6231 39.5875 17.7573 39.6073 17.8928 39.6217C18.1296 39.6467 18.3684 39.6645 18.6079 39.6809C18.7191 39.6888 18.8296 39.7007 18.9415 39.7066C19.2908 39.7263 19.6441 39.7369 20 39.7369C20.3559 39.7369 20.7092 39.7263 21.0599 39.7079C21.1717 39.702 21.2823 39.6902 21.3934 39.6823C21.6329 39.6652 21.8717 39.6481 22.1086 39.6231C22.2441 39.6086 22.3783 39.5888 22.5132 39.5717C22.7224 39.5448 22.9309 39.5184 23.1382 39.4849C23.2888 39.4606 23.4388 39.4316 23.5888 39.404C23.775 39.3698 23.9612 39.3349 24.1461 39.2954C24.3112 39.2599 24.475 39.2211 24.6395 39.1816C24.8013 39.1421 24.9632 39.102 25.1237 39.0592C25.4392 38.9745 25.7525 38.8817 26.0632 38.7809C26.2678 38.7152 26.4711 38.6467 26.6731 38.5744C26.7658 38.5408 26.8579 38.5053 26.9507 38.4704C27.1853 38.3829 27.4182 38.291 27.6494 38.1948C27.6823 38.1809 27.7145 38.1658 27.7474 38.152C30.6391 36.9183 33.1942 35.0117 35.2 32.5908C35.2079 32.5816 35.2086 32.5684 35.2158 32.5592C38.0382 29.1434 39.7369 24.7665 39.7369 20C39.7369 9.11713 30.8829 0.263184 20 0.263184ZM23.9369 20.8007C23.6785 20.9686 23.4093 21.1191 23.1309 21.2513C23.0981 21.2671 23.0658 21.2836 23.0329 21.2987C21.1277 22.1652 18.8724 22.1652 16.9671 21.2987C16.9342 21.2836 16.9013 21.2671 16.8691 21.2513C16.5907 21.1192 16.3215 20.9687 16.0632 20.8007C14.0796 19.5086 12.7632 17.275 12.7632 14.7369C12.7632 10.7467 16.0099 7.50003 20 7.50003C23.9902 7.50003 27.2369 10.7467 27.2369 14.7369C27.2369 17.275 25.9204 19.5086 23.9369 20.8007ZM15.8184 22.1902C15.8737 22.2211 15.9283 22.254 15.9842 22.2836C16.1796 22.3879 16.3791 22.4842 16.5823 22.5724C16.7382 22.6408 16.8994 22.6987 17.0599 22.7579C17.0915 22.7691 17.1231 22.7816 17.1546 22.7928C18.0467 23.1086 19.0013 23.2895 20 23.2895C20.9987 23.2895 21.9533 23.1086 22.8448 22.7928C22.8763 22.7816 22.9079 22.7691 22.9395 22.7579C23.1 22.6987 23.2612 22.6408 23.4171 22.5724C23.6203 22.4842 23.8198 22.3879 24.0152 22.2836C24.0711 22.2533 24.1257 22.2211 24.1809 22.1902C24.275 22.1375 24.3711 22.0875 24.4632 22.0309C29.0948 23.5336 32.6941 27.3086 33.9665 31.9908C32.3211 33.9046 30.2934 35.4809 27.9981 36.5921C27.9882 36.5967 27.979 36.602 27.9691 36.6066C27.7342 36.7198 27.4954 36.8263 27.2546 36.9303C27.2 36.9533 27.1461 36.977 27.0915 37C26.8804 37.0881 26.6676 37.1721 26.4533 37.252C26.364 37.2857 26.2743 37.3183 26.1842 37.35C25.9941 37.418 25.8028 37.4829 25.6106 37.5448C25.4908 37.5829 25.3704 37.6191 25.25 37.6546C25.0787 37.7063 24.9065 37.7552 24.7336 37.8013C24.5875 37.8402 24.4402 37.8757 24.2928 37.9106C24.1382 37.9474 23.9842 37.9849 23.8283 38.0178C23.6579 38.054 23.4862 38.0849 23.3152 38.1158C23.1763 38.1415 23.0382 38.1684 22.8981 38.1908C22.7053 38.2211 22.5106 38.2454 22.3165 38.2698C22.1934 38.2856 22.0711 38.304 21.9467 38.3171C21.725 38.3408 21.5013 38.3559 21.2783 38.3717C21.179 38.3783 21.0803 38.3895 20.9796 38.3948C20.654 38.4119 20.3277 38.4211 20 38.4211C19.6724 38.4211 19.3461 38.4119 19.0211 38.3948C18.9211 38.3895 18.8224 38.379 18.7224 38.3717C18.4987 38.3566 18.2757 38.3408 18.054 38.3171C17.9296 38.304 17.8073 38.2856 17.6842 38.2698C17.4902 38.2454 17.2954 38.2211 17.1027 38.1908C16.9625 38.1684 16.8244 38.1415 16.6856 38.1158C16.5138 38.0849 16.3421 38.0533 16.1724 38.0178C16.0165 37.9849 15.8619 37.9474 15.7079 37.9106C15.5606 37.875 15.4132 37.8402 15.2671 37.8013C15.0941 37.7553 14.9217 37.7053 14.7507 37.6546C14.6301 37.6193 14.5099 37.5827 14.3902 37.5448C14.1979 37.483 14.0066 37.4181 13.8165 37.35C13.5109 37.2416 13.2084 37.1249 12.9092 37C12.8546 36.9777 12.8013 36.954 12.7467 36.9309C12.5061 36.8281 12.2677 36.7202 12.0316 36.6073C12.0218 36.6027 12.0122 36.5979 12.0027 36.5928C9.70726 35.4823 7.67963 33.9059 6.03424 31.9915C7.30595 27.3086 10.9059 23.5336 15.5375 22.0316C15.629 22.0875 15.7244 22.1375 15.8184 22.1902ZM34.9533 30.7388C33.4619 26.3349 30.0592 22.7757 25.7119 21.0849C27.4507 19.5184 28.5527 17.2566 28.5527 14.7369C28.5527 10.0211 24.7158 6.18424 20 6.18424C15.2842 6.18424 11.4474 10.0211 11.4474 14.7369C11.4474 17.2566 12.5494 19.5184 14.2888 21.0849C9.94147 22.7763 6.53884 26.3349 5.04739 30.7388C2.86779 27.7132 1.57897 24.0053 1.57897 20C1.57897 9.84279 9.84279 1.57897 20 1.57897C30.1573 1.57897 38.4211 9.84279 38.4211 20C38.4211 24.0053 37.1323 27.7132 34.9533 30.7388Z" fill="#4B413A"/>
	</g>
	<defs>
		<clipPath id="clip0_57_6">
			<rect width="40" height="40" fill="white"/>
		</clipPath>
	</defs>
</svg>