<svg width="24" height="24" viewBox="0 0 24 24" fill="none" xmlns="http://www.w3.org/2000/svg">
<path d="M19.6557 12.13C20.6548 11.0015 21.6793 9.75 21.6152 8.18799C21.5917 6.92381 20.4418 6.04567 19.2724 5.86814C18.8834 5.8445 18.1461 5.60696 18.0197 6.12995C17.9929 6.33282 18.1426 6.51659 18.3457 6.53442C19.3787 6.65497 20.6675 7.25469 20.4536 8.45972C20.3438 9.38493 19.6842 10.0802 19.1319 10.7752C19.0249 10.9164 18.9149 11.0554 18.8019 11.1919C18.6819 11.0691 18.5609 10.9472 18.439 10.8264C16.4736 8.8722 13.9099 7.63645 11.3397 6.69268C10.6176 6.40646 9.85891 6.14783 9.08407 5.95606C9.29466 5.41439 9.55655 4.89441 9.87997 4.41986C10.4184 3.73514 11.1533 2.614 12.0994 2.66116C12.7823 2.74417 13.3239 3.29321 13.6543 3.87289C14.0933 4.5807 15.1705 3.91064 14.7358 3.20432C14.2325 2.39465 13.4376 1.70633 12.4824 1.52202C11.3557 1.2841 10.5067 1.96009 9.81061 2.75065C9.00988 3.62464 8.45533 4.65065 8.06848 5.74747C6.5305 5.49989 4.96485 5.57455 3.52605 6.26727C1.96879 6.85856 2.2059 8.82975 3.02815 9.93915C3.26518 10.2941 3.83358 9.97012 3.64982 9.58505C3.33877 8.88305 2.99315 7.57018 3.97002 7.29964C5.17971 6.82822 6.44745 6.79056 7.70799 6.97432C7.45736 8.01241 7.32237 9.08469 7.24411 10.1296C7.15386 11.4795 7.12153 12.8579 7.22504 14.2203C7.21382 14.3028 7.2211 14.3801 7.24394 14.4525C7.33055 15.44 7.49152 16.4177 7.75663 17.3687C7.06488 17.4701 6.36101 17.5014 5.64541 17.4428C4.63317 17.3069 3.23899 17.2432 3.22649 15.905C3.20747 15.5534 3.27755 15.1965 3.42072 14.8754C3.618 14.4503 2.93688 14.1618 2.76291 14.5906C2.13556 16.0221 2.62406 17.7073 4.31691 17.9788C5.5233 18.3056 6.77316 18.3262 8.00094 18.1502C8.10759 18.457 8.22555 18.7605 8.35749 19.0599C8.71845 19.8767 9.18123 20.6534 9.74358 21.3492C10.4127 21.9922 11.3256 22.5402 12.2794 22.5259C13.2965 22.4307 14.015 21.5705 14.5444 20.799C14.8531 20.2796 14.0425 19.8132 13.7456 20.3318C13.3498 20.971 12.8128 21.7749 11.9907 21.7171C10.4658 21.47 9.63655 20.0525 9.07301 18.7471C8.97052 18.5048 8.87648 18.2589 8.79108 18.01C9.39537 17.8827 9.99077 17.7128 10.5691 17.513C12.2139 16.9501 13.7765 16.1529 15.3156 15.3548C16.6573 14.6041 17.9295 13.7022 19.1179 12.7219C20.0524 13.857 20.672 15.1329 20.4387 16.3481C20.2465 17.8076 18.399 17.135 18.4801 17.9204C18.6287 18.5072 19.4126 18.0928 19.8205 18.0096C20.9458 17.6777 21.3141 16.5797 21.226 15.4981C21.1281 14.2114 20.4687 13.1051 19.6557 12.13ZM10.7304 7.74759L10.7452 7.75208C10.7281 7.76251 10.7111 7.7731 10.694 7.78348C9.91607 8.2052 9.10784 8.77725 8.27775 9.17524C8.36775 8.54861 8.4955 7.92364 8.66367 7.32282C8.67629 7.26922 8.68951 7.21566 8.70294 7.16215C9.38965 7.31905 10.0691 7.52561 10.7304 7.74759ZM8.54969 17.2216C8.37194 16.5622 8.24852 15.8898 8.16712 15.2105C8.28817 15.2695 8.403 15.3233 8.49842 15.3736C9.35881 15.7677 10.25 16.0402 11.1298 16.358C10.2909 16.7229 9.43054 17.0246 8.54969 17.2216ZM14.7563 14.4297C13.8024 14.999 12.8137 15.567 11.7919 16.0554C11.7715 16.0209 11.7421 15.9894 11.7017 15.9637C11.4066 15.7652 11.0996 15.5909 10.7953 15.4209C9.92548 14.9435 9.02297 14.4837 8.29271 13.8207C8.22378 13.7564 8.14107 13.7088 8.0509 13.6814C8.00967 12.5194 8.06551 11.3501 8.16352 10.2023L8.16407 10.1963C9.40749 9.29337 10.9161 8.85881 12.3144 8.25909C13.4053 8.64319 14.471 9.09677 15.4724 9.67755C15.625 9.76562 15.7756 9.85708 15.924 9.95186C15.921 10.2511 15.9124 10.5498 15.8925 10.8483C15.8521 11.3304 15.785 11.9378 15.7194 12.4221L15.7228 12.3862C15.6199 12.9059 15.5614 13.4301 15.4885 13.9404C15.2474 14.108 15.0033 14.2711 14.7563 14.4297ZM16.7424 13.0198C16.7447 12.1499 16.7362 11.2821 16.6186 10.4237C17.1603 10.815 17.7269 11.2786 18.2543 11.7903C17.9957 12.001 17.6903 12.2631 17.4508 12.4609C17.2168 12.6498 16.9806 12.8361 16.7424 13.0198Z" fill="black"/>
<path d="M14.315 6.09797C14.379 7.48087 16.4622 7.43613 16.4661 6.06263C16.4186 4.58689 14.3102 4.63227 14.315 6.09797ZM5.68701 12.1259C5.50647 10.6986 3.47134 11.0392 3.71375 12.4274C3.95073 13.7539 5.85387 13.4538 5.68701 12.1259ZM14.7203 18.5631C15.7629 19.6391 17.2102 18.0942 16.3018 17.0268C15.2715 15.8954 13.7369 17.4857 14.7203 18.5631Z" fill="black"/>
</svg>