<svg width="24" height="24" viewBox="0 0 24 24" fill="none" xmlns="http://www.w3.org/2000/svg">
<path d="M15.8156 15.9825C15.0132 15.5368 14.7035 16.6592 14.3007 17.1265C13.7935 17.7858 13.2498 18.6322 12.4351 18.877C12.3553 15.409 12.4192 11.8071 12.4949 8.33522C12.5056 7.45814 11.1684 7.47623 11.1964 8.34769C11.3386 11.8426 11.4635 15.3446 11.8238 18.8261C10.707 18.4656 9.51283 16.8006 8.95236 16.1097C8.53893 15.5544 7.74546 16.2674 8.24694 16.7384C8.8191 17.2544 9.32957 17.8264 9.87368 18.3929C11.0214 19.6861 12.43 20.4416 13.9261 19.1401C14.7105 18.502 15.3525 17.7011 15.9749 16.947C16.2232 16.6479 16.1475 16.1858 15.8156 15.9825ZM22.2732 4.32402C15.4878 3.84324 8.63493 4.78525 1.84228 4.32095C1.36448 4.29585 1.34674 5.04109 1.81475 5.05243C1.83254 5.05395 6.92395 5.25227 6.9436 5.25417C7.9985 5.24387 24.7697 6.17116 22.2732 4.32402Z" fill="black"/>
</svg>