<svg width="24" height="24" viewBox="0 0 24 24" fill="none" xmlns="http://www.w3.org/2000/svg">
<path d="M13.5096 5.8851C13.8439 5.82075 14.1812 5.80369 14.5194 5.80866C14.4951 7.42219 14.7176 9.17153 16.7842 9.11023C16.804 9.11253 16.8241 9.1138 16.8446 9.11302C17.1742 9.12943 17.5052 9.15402 17.8376 9.17671C17.83 9.5939 18.0727 10.1127 18.1745 10.468C18.2721 10.71 18.6253 10.7164 18.7302 10.4742C18.8037 10.3129 18.8636 10.0743 18.914 9.90352C18.9618 9.74579 19.0301 9.52667 19.0806 9.36775C19.0954 9.32256 19.1045 9.27729 19.1087 9.23247C19.3304 9.23334 19.5526 9.22803 19.7753 9.21298C22.0464 9.19411 22.7511 7.04292 22.4666 5.09855C22.5492 3.80681 22.2883 1.72067 20.5644 1.88087C20.5532 1.8806 20.5419 1.88077 20.5307 1.88136C17.9104 1.59333 14.1817 0.853689 14.5543 4.77992C14.5508 4.87018 14.547 4.96265 14.5432 5.05677C14.1962 5.06771 13.8515 5.06031 13.5096 4.9842C12.7698 4.85204 12.7634 6.01718 13.5096 5.8851ZM20.5312 2.57889C21.5015 2.92692 21.1471 4.32729 21.2353 5.1666C21.3266 5.87585 21.4843 6.60648 21.3135 7.30686C20.8813 9.00801 18.0453 8.32203 16.9219 8.43255C16.9095 8.42698 16.8969 8.42198 16.8841 8.41759C16.4357 8.23662 16.0055 8.04584 15.8724 7.56886C15.7579 7.01948 15.758 6.45233 15.7545 5.88103C15.8733 5.88905 15.9921 5.89616 16.1105 5.90118C16.6321 5.93942 17.1513 5.98519 17.6711 6.05377C18.0704 6.11183 18.4314 5.75328 18.3722 5.35266C18.327 5.01072 18.0131 4.77022 17.6711 4.81549C17.0256 4.89838 16.3781 4.95369 15.7296 4.99477C15.7131 4.75303 15.685 4.51179 15.6364 4.27207C15.1787 1.57935 18.9266 2.55135 20.5312 2.57889ZM9.72218 4.9733C9.5874 4.99962 9.41758 5.0305 9.25212 5.06364C9.32313 4.35134 9.33481 3.64337 9.01186 2.98251C8.16914 1.43819 6.02407 1.64403 4.56236 1.67873C4.02251 1.70587 3.47712 1.54974 2.95582 1.74312C1.98945 1.86713 1.04689 4.18823 1.81507 4.78346C1.67469 6.70122 1.20693 9.01796 3.77736 9.35862C4.11046 9.36376 4.51034 9.38778 4.93986 9.40648C5.09788 11.1234 6.16112 10.8654 6.16359 9.42606C7.80212 9.3858 9.39184 8.98782 9.19788 7.09045C9.18398 7.02141 9.15401 6.96479 9.11404 6.92071C9.09418 6.55048 9.12728 6.17059 9.17021 5.78778C9.56643 5.87289 9.9758 5.94131 10.3692 6.01409C10.3692 6.01409 10.5244 6.04287 10.4957 6.03876C10.8864 6.11056 11.2532 5.77787 11.2135 5.38202C11.0896 4.59107 10.2683 4.86948 9.72218 4.9733ZM8.54315 6.98749C8.53024 7.01141 8.5199 7.03663 8.51231 7.06273C8.41285 7.45126 8.2744 7.74345 7.9274 7.90574C7.29907 8.13868 6.62469 8.19904 5.94204 8.23029C5.83999 7.74398 5.81593 7.24444 5.85027 6.74551C5.83933 6.43346 6.0855 5.92721 5.63974 5.82347C5.38773 5.77178 5.22346 5.99505 5.21203 6.22532C5.08037 6.89493 5.0154 7.58823 4.95709 8.27112C4.57917 8.29123 4.20421 8.32343 3.83879 8.39234C2.28715 8.4055 2.39587 6.78543 2.48111 5.65418C2.4971 5.38403 2.51182 5.11043 2.52288 4.83399C3.04685 4.52959 2.60734 3.68761 2.94899 3.17914C3.0883 2.89945 3.34032 2.73181 3.65047 2.73259C5.13123 2.84131 6.74513 2.19781 8.04809 3.05759C8.99517 4.00854 8.33616 5.72001 8.54315 6.98749ZM9.99583 17.8528C9.76092 17.7938 9.52473 17.7847 9.29085 17.8095C9.29217 17.7998 9.29381 17.7904 9.29467 17.7804C9.31199 17.4053 9.30413 17.026 9.2374 16.6431C9.05853 15.3419 7.96935 14.5335 6.67218 14.6923C6.42239 14.6657 6.17107 14.6382 5.91906 14.6152C6.03699 14.1064 6.16725 13.5833 6.18069 13.0729C6.02995 12.2632 4.79813 12.4875 4.94171 13.298C5.01918 13.7131 5.09184 14.1446 5.18205 14.5652C4.54698 14.5413 3.91219 14.5778 3.28999 14.759C1.21256 15.4071 1.36482 17.7103 1.61441 19.4379C1.63822 19.6117 1.73431 19.7578 1.86667 19.8531C2.06371 21.9576 4.91935 22.2377 6.70874 22.1296C9.45623 22.1355 9.70783 20.8264 9.47646 19.0281C9.83551 18.9901 10.1841 18.9097 10.5133 18.7677C11.0765 18.3746 10.4366 17.9188 9.99583 17.8528ZM8.42983 17.5128C8.41596 17.5811 8.4043 17.6499 8.39488 17.719C8.39361 17.7257 8.39245 17.7325 8.39114 17.7392C8.39114 17.7409 8.3913 17.7424 8.39134 17.744C8.37886 17.8413 8.3697 17.939 8.36388 18.037C7.8816 18.1485 7.37987 18.1385 6.8881 18.1189C6.71552 18.1091 6.54303 18.0915 6.37074 18.0573C5.93481 17.9639 5.80006 18.6497 6.23678 18.7303C6.90508 18.8276 7.63382 18.974 8.35717 19.0312C8.36289 19.6143 8.34587 20.1891 8.09916 20.7041C6.5985 21.2965 4.57683 21.565 3.1316 20.7305C2.81186 20.5124 2.63962 20.209 2.58061 19.8602C2.78501 19.7187 2.89258 19.4619 2.8309 19.2057C2.36495 17.374 2.26922 15.4304 4.68649 15.4282C5.3295 15.3861 5.98974 15.4275 6.63764 15.4836C7.2256 15.4212 7.8295 15.4552 8.18361 15.9716C8.48982 16.4169 8.50652 16.9858 8.42983 17.5128ZM21.0307 14.8842C20.4373 14.4788 19.7105 14.3791 19.0062 14.4185C19.0442 14.0657 19.0763 13.7132 19.0859 13.3621C19.1301 12.4254 17.6994 12.5008 17.8496 13.4323C17.9181 13.7757 17.9618 14.1286 17.992 14.483C17.4061 14.4807 16.8366 14.4733 16.2262 14.6153C15.1957 14.8506 14.5882 15.5724 14.5716 16.624C14.5126 17.0689 14.4565 17.5219 14.4262 17.9771C13.9846 17.8634 13.5267 17.7175 13.0816 17.7777C12.1918 18.1409 12.7143 19.4064 13.7644 18.8984C13.9651 18.8339 14.1888 18.7782 14.4034 18.7125C14.4092 19.335 14.4864 19.9553 14.6941 20.5576C15.213 22.1555 16.8884 22.5915 18.3936 22.2678C19.2989 22.1686 20.2552 22.112 21.0875 21.6775C21.5261 21.4434 21.8922 21.06 22.0495 20.5835C22.346 18.8064 22.6906 16.096 21.0307 14.8842ZM21.4779 19.8021C21.4182 21.4023 19.4688 21.0763 18.3396 21.1112C17.7356 21.1141 17.0521 21.2406 16.4988 20.9423C15.2633 20.1428 15.5154 17.9757 15.5621 16.6752C15.4582 15.3229 16.9502 15.3485 18.0427 15.3152C18.0441 15.3472 18.0456 15.3793 18.0469 15.4111C18.0613 15.9179 18.0956 16.4321 18.0737 16.9421C18.0842 17.1931 17.9733 17.4381 18.0219 17.6871C18.0925 17.9338 18.3496 18.0767 18.5963 18.0062C18.843 17.9356 18.9858 17.6785 18.9153 17.4318C18.7855 16.6971 18.8381 15.9525 18.9181 15.2069C21.6484 14.7723 21.8368 17.6222 21.4779 19.8021Z" fill="black"/>
</svg>