<svg width="24" height="24" viewBox="0 0 24 24" fill="none" xmlns="http://www.w3.org/2000/svg">
<path d="M4.21863 13.9853C4.35314 12.2812 5.61564 10.9895 7.36299 11.0447C9.27993 11.1327 10.3543 12.8126 10.0353 14.6273C9.80146 15.7522 8.93728 16.7315 7.8073 17.0179C6.55424 17.3644 5.21677 16.8722 4.59391 15.7117C4.56888 15.6732 4.52451 15.5702 4.50351 15.5277C4.48719 15.4912 4.46131 15.4412 4.44928 15.4035C4.38919 15.2415 4.33444 15.0615 4.29543 14.8937C4.2854 14.8296 4.26308 14.7004 4.25356 14.6361C4.23971 14.5617 4.23831 14.4558 4.22866 14.3801C4.21748 14.2913 4.22135 14.0768 4.21863 13.9853ZM4.92997 14.0237C4.9335 14.0616 4.94646 14.2296 4.94905 14.2629C4.96554 14.3384 4.97672 14.4334 4.99585 14.5075L5.02513 14.6011L5.05356 14.6942L5.09097 14.7828C5.11166 14.8359 5.14235 14.9065 5.17342 14.9532C5.19998 15.0008 5.23878 15.068 5.27317 15.1096C5.78429 15.8258 6.83181 16.0162 7.63012 15.753C8.02567 15.6276 8.36551 15.3856 8.62792 15.0563C8.77956 14.8641 8.90018 14.6375 8.9893 14.3897L8.98267 14.4216C9.14154 13.8446 9.12709 13.2069 8.79886 12.6979C8.3072 11.9205 7.24544 11.6419 6.39231 11.9314C5.47178 12.2451 4.98199 13.0868 4.92997 14.0237Z" fill="black"/>
<path d="M6.46609 21.9759C5.64594 22.033 4.85402 22.2315 4.01097 22.2346C3.50295 22.2401 3.04062 22.1981 2.5502 21.9829C2.11928 21.7966 1.76609 21.4354 1.59656 20.9944C1.54458 20.8534 1.50832 20.7097 1.48257 20.5623C1.47266 20.5113 1.47109 20.4591 1.47794 20.4076L1.51364 20.1266C1.5283 20.0333 1.55138 19.9411 1.5705 19.8485C1.84799 18.5793 2.81103 17.4977 3.94046 16.9353C5.21817 16.2815 6.72696 16.091 8.12376 16.4165C9.84982 16.8561 11.4959 17.9994 12.1264 19.7169C12.1667 19.8477 12.213 19.959 12.2454 20.1047C12.3997 20.8076 12.0277 21.5831 11.3626 21.8802C11.1689 21.9703 10.9484 22.0129 10.7319 22.0058C10.6382 22.0024 10.5496 21.9625 10.485 21.8947C10.4203 21.8268 10.3848 21.7364 10.386 21.6427C10.3872 21.549 10.425 21.4594 10.4913 21.3932C10.5576 21.327 10.6472 21.2894 10.7409 21.2884C10.8594 21.2911 10.9777 21.2718 11.0821 21.2184C11.3738 21.0772 11.5636 20.719 11.5411 20.4055C11.5348 20.2799 11.5036 20.1982 11.4565 20.0673C11.4267 19.9708 11.3768 19.8603 11.3355 19.7685C11.3111 19.707 11.2218 19.5436 11.1884 19.4819C10.784 18.7924 10.1679 18.2408 9.46991 17.8561C8.95636 17.5774 8.39305 17.3731 7.82077 17.2651C6.29286 16.9993 4.59986 17.5553 3.56432 18.7153C3.16222 19.1696 2.87278 19.7246 2.77329 20.3241C2.76356 20.3908 2.75259 20.4574 2.74162 20.5241L2.73703 20.3707C2.76283 20.621 2.87376 20.7726 3.07696 20.884C3.3499 21.0315 3.71605 21.0835 4.04794 21.1157C4.42722 21.1476 4.83077 21.1528 5.24618 21.1577C5.68777 21.1686 6.11095 21.1672 6.56146 21.2631C6.9909 21.3737 6.90602 21.9771 6.46609 21.9759ZM14.2323 14.0898C14.1063 12.5236 15.3892 10.9548 16.9934 10.9252C19.1847 10.8704 20.6481 13.2676 19.867 15.2453C19.7185 15.6258 19.4772 15.9747 19.1804 16.2522C19.0778 16.3451 18.9594 16.4395 18.8509 16.525C17.67 17.4134 15.9918 17.1562 15.0123 16.1147C14.4952 15.5695 14.2078 14.8423 14.2323 14.0898ZM14.9513 14.075C14.9117 14.6489 15.0986 15.2032 15.5043 15.6165C16.0478 16.182 16.9162 16.4334 17.6689 16.1896C17.938 16.1034 18.1883 15.9549 18.3968 15.7645C18.5306 15.6489 18.6568 15.5214 18.7559 15.3746C19.4077 14.4212 18.9519 13.0622 18.0105 12.4848C17.7099 12.2952 17.3523 12.197 17.0003 12.1983C15.9978 12.1995 14.8962 12.9921 14.9513 14.075Z" fill="black"/>
<path d="M16.4047 22.3228C15.9414 22.2254 15.3722 22.2738 14.8707 22.3076C14.0879 22.3583 13.2237 22.4197 12.4967 21.9954C12.2914 21.8718 12.0997 21.7183 11.9513 21.5335C11.7546 21.2446 11.6295 20.891 11.6117 20.5386C11.5301 18.7567 13.6911 17.1503 15.1983 16.5955C15.4916 16.4903 15.7989 16.4038 16.1485 16.3773L16.1014 16.3824C17.5522 16.1297 19.0894 16.4389 20.329 17.2384C20.4537 17.3284 20.6151 17.4303 20.7316 17.5301C20.8819 17.6422 21.0809 17.831 21.2209 17.9573C21.7971 18.5327 22.2103 19.2057 22.4337 20.008C22.78 21.3121 22.1394 22.31 20.7832 22.4576C19.9377 22.5291 19.7903 21.3299 20.624 21.1919C20.8616 21.1726 21.1166 21.1417 21.252 20.976C21.5096 20.5448 21.171 19.7627 20.9254 19.3366C20.7936 19.1114 20.6469 18.9061 20.4678 18.7204L20.2698 18.5269C20.2167 18.4666 20.1278 18.3972 20.0676 18.3438C20.0133 18.2893 19.9198 18.2244 19.8583 18.1766L19.7511 18.0957L19.6385 18.0218C18.6388 17.3611 17.3844 17.1059 16.2001 17.2853C15.7251 17.3123 15.208 17.5189 14.7686 17.7414C13.8783 18.2117 12.9534 18.9134 12.5265 19.8411C12.338 20.2678 12.3306 20.7133 12.5917 21.1023L12.5587 21.0595C12.6549 21.168 12.7626 21.2604 12.886 21.3304C13.5936 21.7225 14.5616 21.4988 15.3484 21.4305C15.7248 21.3935 16.1212 21.3614 16.5478 21.4061C16.8031 21.4324 16.9886 21.6606 16.9623 21.9158C16.936 22.1883 16.672 22.3805 16.4047 22.3228ZM9.21536 4.12817C9.2302 2.29416 10.8778 1.30766 12.5743 1.58609C13.9144 1.79405 14.8768 2.77553 14.937 4.1521C14.9879 5.83391 13.7165 7.12837 12.0333 7.12586C10.3484 7.10886 9.19989 5.7711 9.21536 4.12817ZM9.93431 4.1124C9.98136 5.20209 10.8174 5.81882 11.8572 5.85168C12.6178 5.89673 13.4098 5.52238 13.725 4.80551C13.8203 4.60031 13.8928 4.36239 13.9041 4.13522C13.9735 3.04014 13.0538 2.40351 12.0466 2.32021C10.8928 2.23151 9.91693 2.88654 9.93431 4.1124Z" fill="black"/>
<path d="M11.7163 12.0674C11.5045 12.0334 11.2751 12.0226 11.0544 12.022C10.5826 12.0205 10.1032 12.0396 9.62576 12.0337C8.88586 12.0216 8.02597 12.0009 7.3885 11.555C6.8781 11.1946 6.716 10.5616 6.80372 9.98001C6.8373 9.87725 6.89489 9.65403 6.93569 9.55904C6.962 9.48993 7.0161 9.35372 7.04228 9.28478C7.08852 9.18652 7.15308 9.04945 7.20073 8.95297C8.10324 7.27094 9.93967 6.21113 11.813 6.02689C12.7186 5.93539 13.6467 6.06646 14.4937 6.40392L14.4487 6.38654C14.7637 6.48773 15.0405 6.63725 15.3122 6.8073C16.2941 7.44176 17.2093 8.48142 17.5215 9.62611C17.8313 10.7542 17.3244 11.7539 16.2 12.0882C15.7857 12.2038 15.5499 11.6566 15.9063 11.432C16.5146 11.0732 16.7205 10.6163 16.4624 9.9506C16.1587 9.20122 15.5475 8.55792 14.9062 8.07485C14.6312 7.86664 14.2961 7.66897 13.9911 7.57003C12.9029 7.119 11.6642 7.05308 10.5341 7.38502C9.18341 7.77339 7.99176 8.8162 7.59837 10.1864L7.61239 10.1096C7.58808 10.2952 7.59259 10.4664 7.63118 10.5973C7.84624 11.3918 9.638 11.2831 10.3197 11.2994C10.8182 11.3014 11.293 11.282 11.8043 11.3537C12.01 11.3723 12.1612 11.5604 12.13 11.7655C12.1006 11.9637 11.914 12.0998 11.7163 12.0674Z" fill="black"/>
</svg>